<svg width="617" height="100" viewBox="0 0 617 100" fill="none" xmlns="http://www.w3.org/2000/svg">
<g clip-path="url(#clip0_357_2)">
<path d="M143.7 49.3C143.7 61.5 152.8 69.6 163.8 69.6C169.8 69.6 175.6 68.0001 180.7 64.8001V76.6C178.4 78 171.5 80.6 163.8 80.6C145.9 80.6 131.7 67 131.7 49.3C131.7 31.6 146 18 163.9 18C171.6 18 178.5 20.6 180.8 22V33.8C175.7 30.7 169.8 29 163.9 29C152.8 29 143.7 37.1 143.7 49.3ZM233.5 50V79.7H222.5V53.5C222.5 48.3 220.2 44.4001 214.3 44.4001C208.6 44.4001 205.2 48 205.2 54.5V79.6H194.2V15.3H205.2V42.9001C206 40.9001 209.1 34.7001 218.3 34.7001C227.8 34.7001 233.5 40.4 233.5 50ZM293.3 70.4001V79.7H279.1C278.2 79.8 277.4 79.1 277.3 78.1V78V70.1C275.8 75.3 271.8 80.6 263.3 80.6C251.8 80.6 243.5 72.0001 243.5 57.7001C243.5 43.1 252.6 34.8 263.9 34.8C274.3 34.8 276.4 43.4001 276.4 43.4001V35.7001H287.4V70.5H293.3V70.4001ZM276.8 57.7001C276.8 49.4001 272.8 44.2001 266.2 44.2001C259.8 44.2001 255 48.9 255 57.6C255 66.3 259 71 265.7 71C272.5 71.1 276.8 66.7001 276.8 57.7001ZM318.5 37.4001V79.7H307.5V44.9001H299.5V35.6H316.8C317.7 35.6 318.5 36.3001 318.5 37.2001C318.5 37.3001 318.5 37.3001 318.5 37.4001ZM318.2 26.4H306.3V15.3H318.2V26.4ZM331.4 35.6H342.3V43.4001C342.7 42.2001 345.3 34.7001 355.6 34.7001C365.1 34.7001 370.8 40.4 370.8 50V79.7H359.8V53.5C359.8 48.3 357.5 44.4001 351.6 44.4001C345.9 44.4001 342.5 48 342.5 54.5V79.6H331.5L331.4 35.6ZM430.5 70.4001V79.7H416.3C415.4 79.8 414.6 79.1 414.5 78.1V78V70.1C413 75.3 409 80.6 400.5 80.6C389 80.6 380.7 72.0001 380.7 57.7001C380.7 43.1 389.8 34.8 401.1 34.8C411.5 34.8 413.6 43.4001 413.6 43.4001V35.7001H424.6V70.5H430.5V70.4001ZM414 57.7001C414 49.4001 410 44.2001 403.4 44.2001C397 44.2001 392.2 48.9 392.2 57.6C392.2 66.3 396.2 71 402.9 71C409.7 71.1 414 66.7001 414 57.7001ZM453 18V79.7H442V24.6H435.1V15.3H450.4C451.8 15.3 453 16.5 453 18ZM472.9 100H461.9V90.7H470C472.9 90.7 474.2 89.8 475.3 87.2L478.6 78.9001L461.6 35.6H473.9L484.2 66.7L494.9 35.6H507.2L485.5 91.4C483.1 97.4 479.3 100 472.9 100ZM513.2 76.9001V66.2C514.7 67.2 520.8 71.2 527.6 71.2C532.8 71.2 535.1 69.7001 535.1 66.8001C535.1 58.1001 512.6 64.5001 512.6 47.9001C512.6 40.4001 518.9 34.7001 530.6 34.7001C537 34.7001 541.6 36.4001 543.4 37.4001V48C541.2 46.6 536.8 43.8 530.8 43.8C525.6 43.8 523.7 45.4001 523.7 47.9001C523.7 55.0001 546.1 50.1001 546.1 66.3001C546.1 75.1001 538.8 80.7 528.1 80.7C521 80.6 515.2 78.2001 513.2 76.9001ZM572.4 37.4001V79.7H561.4V44.9001H553.4V35.6H570.7C571.6 35.6 572.4 36.3001 572.4 37.2001C572.4 37.3001 572.4 37.3001 572.4 37.4001ZM572 26.4H560.1V15.3H572V26.4ZM584.2 76.9001V66.2C585.7 67.2 591.8 71.2 598.6 71.2C603.8 71.2 606.1 69.7001 606.1 66.8001C606.1 58.1001 583.6 64.5001 583.6 47.9001C583.6 40.4001 589.9 34.7001 601.6 34.7001C608 34.7001 612.6 36.4001 614.4 37.4001V48C610.7 45.4 606.3 43.9 601.8 43.8C596.6 43.8 594.6 45.4001 594.6 47.9001C594.6 55.0001 617 50.1001 617 66.3001C617 75.1001 609.7 80.7 599 80.7C592 80.6 586.2 78.2001 584.2 76.9001Z" fill="#FF5300"/>
<path d="M50 0C51.1 0 52.4 0.1 52.4 0.1C48.6 4.6 46.4 10.2 45.9 16C31.4 18.4 20.1 30 18 44.6C11.5 45.3 4.20001 48.3 9.19402e-06 52.5C-0.999991 23.5 21.3 0 50 0ZM57.2 87.2C55.9 87.4 54.5 87.5 53.2 87.5C50.9 87.5 48.6 87.3 46.3 86.9C44.5 91.2 42.2 95.2 39.3 98.9C21 94.9 6.50001 80.9 1.70001 62.8C6.20001 57.5 16.6 54.3 23.1 54.3C36.9 54.3 44.2 61.6 46.8 73C38.5 70.8 33.6 66.1 30.3 59.2C28.4 58.5 26.4 58.2 24.4 58.2C22.6 58.2 20.8 58.5 19 59C22.7 73 36.2 83.4 52.7 83.4C67.9 83.4 74.4 75.7 74.4 75.7V63.9C74.4 63.9 66.9 71.7 57.6 73.2C55.5 58.3 43.7 46.7 28.9 44.6C31.3 32.8 40.3 26.1 52.5 26.1C64.7 26.1 74.6 35 74.6 35V23.4C74.6 23.4 68.3 17.5 57 16.2C57.3 11 60.7 4.5 64.3 2.1C79.6 6.9 94.4 19.9 98.6 38.7C98.6 38.7 91.8 45.5 79.2 45.5C68.8 45.5 62.2 40.3 58.5 31.1C56.6 30.4 54.5 30.1 52.5 30.1C50.6 30.1 48.7 30.4 46.9 31.1C51 45.8 63.9 55.6 78.3 55.6C92.4 55.6 100 49.1 100 49.1C100 78.4 77.6 99.4 51 99.9C54.1 97 56.5 90.4 57.2 87.2Z" fill="#FF5300"/>
</g>
<defs>
<clipPath id="clip0_357_2">
<rect width="617" height="100" fill="white"/>
</clipPath>
</defs>
</svg>
